<?xml version="1.0" encoding="UTF-8" standalone="no"?>
<!-- Created with Inkscape (http://www.inkscape.org/) -->

<svg
   xmlns:dc="http://purl.org/dc/elements/1.1/"
   xmlns:cc="http://creativecommons.org/ns#"
   xmlns:rdf="http://www.w3.org/1999/02/22-rdf-syntax-ns#"
   xmlns:svg="http://www.w3.org/2000/svg"
   xmlns="http://www.w3.org/2000/svg"
   xmlns:sodipodi="http://sodipodi.sourceforge.net/DTD/sodipodi-0.dtd"
   xmlns:inkscape="http://www.inkscape.org/namespaces/inkscape"
   width="61.942989mm"
   height="11.978629mm"
   viewBox="0 0 61.942989 11.978629"
   version="1.1"
   id="svg8"
   inkscape:version="0.92.2 5c3e80d, 2017-08-06"
   sodipodi:docname="logo.svg"
   inkscape:export-filename="/Users/chanakajayasena/Documents/C5/design/prototype/05.png"
   inkscape:export-xdpi="89.941704"
   inkscape:export-ydpi="89.941704">
  <defs
     id="defs2" />
  <sodipodi:namedview
     id="base"
     pagecolor="#949494"
     bordercolor="#666666"
     borderopacity="1.0"
     inkscape:pageopacity="0"
     inkscape:pageshadow="2"
     inkscape:zoom="1.4142136"
     inkscape:cx="2.7474999"
     inkscape:cy="-63.536215"
     inkscape:document-units="px"
     inkscape:current-layer="layer11"
     showgrid="false"
     inkscape:window-width="1440"
     inkscape:window-height="807"
     inkscape:window-x="0"
     inkscape:window-y="1"
     inkscape:window-maximized="1"
     fit-margin-top="0"
     fit-margin-left="0"
     fit-margin-right="0"
     fit-margin-bottom="0"
     showguides="true"
     inkscape:guide-bbox="true"
     gridtolerance="1"
     objecttolerance="1"
     guidetolerance="1">
    <sodipodi:guide
       position="478.75998,-43.537908"
       orientation="1,0"
       id="guide15243"
       inkscape:locked="false" />
  </sodipodi:namedview>
  <metadata
     id="metadata5">
    <rdf:RDF>
      <cc:Work
         rdf:about="">
        <dc:format>image/svg+xml</dc:format>
        <dc:type
           rdf:resource="http://purl.org/dc/dcmitype/StillImage" />
        <dc:title></dc:title>
      </cc:Work>
    </rdf:RDF>
  </metadata>
  <g
     inkscape:groupmode="layer"
     id="layer11"
     inkscape:label="save"
     transform="translate(-42.998344,91.820936)">
    <g
       inkscape:export-ydpi="90"
       inkscape:export-xdpi="90"
       inkscape:export-filename="tmp.png"
       transform="matrix(0.40961884,0,0,0.40961884,-94.641564,-276.71305)"
       id="g13654"
       style="display:inline">
      <path
         id="path13644"
         d="m 422.376,465.642 c 3.662,0 6.655,-2.989 6.655,-6.657 0,-3.664 -2.993,-6.65 -6.655,-6.65 -3.67,0 -6.656,2.986 -6.656,6.65 0,3.667 2.986,6.657 6.656,6.657 z"
         inkscape:connector-curvature="0"
         style="clip-rule:evenodd;fill:#f47b20;fill-rule:evenodd" />
      <polyline
         id="polyline13646"
         points="415.793,459.825     420.198,459.838 422.402,454.935 425.154,461.643 426.599,459.037 429.021,459.031   "
         style="clip-rule:evenodd;fill:none;stroke:#000000;stroke-width:0.71950001;stroke-opacity:1" />
      <path
         id="path13648"
         d="m 406.561,452.271 h 0.559 l -0.559,1.396 z m 0,11.806 c 0.248,0.437 0.554,0.812 0.925,1.11 0.724,0.61 1.646,0.912 2.76,0.912 1.185,0 2.184,-0.409 3.021,-1.215 0.827,-0.808 1.241,-1.794 1.241,-2.969 0,-1.046 -0.334,-1.844 -1,-2.385 -0.668,-0.547 -1.379,-0.986 -2.138,-1.329 l -0.39,-0.183 -0.366,-0.162 c -0.693,-0.355 -1.263,-0.688 -1.715,-0.994 -0.446,-0.318 -0.673,-0.772 -0.673,-1.37 0,-0.601 0.227,-1.084 0.686,-1.46 0.455,-0.376 1.009,-0.564 1.659,-0.564 0.425,0 0.782,0.085 1.084,0.249 0.297,0.168 0.582,0.427 0.853,0.792 l 0.143,0.227 c 0.045,0.032 0.099,0.096 0.166,0.202 l 1.203,-0.772 c -0.396,-0.697 -0.886,-1.218 -1.481,-1.584 -0.591,-0.355 -1.227,-0.534 -1.902,-0.534 -1.16,0 -2.103,0.321 -2.831,0.978 -0.738,0.654 -1.104,1.484 -1.104,2.51 0,0.965 0.334,1.706 0.999,2.232 0.663,0.527 1.379,0.952 2.141,1.296 l 0.247,0.121 0.242,0.102 c 0.734,0.365 1.356,0.73 1.875,1.079 0.517,0.357 0.773,0.881 0.773,1.575 0,0.784 -0.26,1.441 -0.782,1.965 -0.526,0.523 -1.188,0.787 -1.989,0.787 -0.706,0 -1.292,-0.217 -1.753,-0.654 -0.467,-0.435 -0.789,-1.059 -0.979,-1.874 l -0.913,0.277 v 1.635 z m -13.371,-1.628 4.259,-10.893 4.021,10.913 3.997,-10.198 h 1.093 v 1.396 l -5.136,12.908 -4.015,-10.898 -4.285,10.884 -5.22,-14.29 h 1.651 z m 13.371,-0.008 -0.56,0.169 c 0.13,0.551 0.318,1.042 0.56,1.467 z"
         inkscape:connector-curvature="0"
         style="fill:#f47b20" />
      <path
         id="path13650"
         d="m 422.406,451.376 c 2.174,0.022 3.996,0.765 5.47,2.216 1.493,1.488 2.238,3.311 2.238,5.474 0,2.146 -0.742,3.967 -2.234,5.456 -1.495,1.496 -3.309,2.239 -5.454,2.239 -0.007,0 -0.014,0 -0.02,0 v -1.426 c 1.124,0 2.165,-0.275 3.121,-0.823 0.968,-0.554 1.721,-1.308 2.263,-2.261 0.54,-0.953 0.813,-2.02 0.813,-3.186 0,-1.163 -0.273,-2.216 -0.813,-3.151 -0.542,-0.941 -1.304,-1.692 -2.284,-2.26 -0.976,-0.558 -2.008,-0.84 -3.1,-0.84 z m -0.099,0 c 0.032,0 0.069,0 0.1,0 v 1.438 c -0.011,0 -0.018,0 -0.03,0 -1.086,0 -2.107,0.274 -3.077,0.84 -0.972,0.567 -1.725,1.329 -2.273,2.285 -0.539,0.958 -0.813,2.023 -0.813,3.189 0,1.747 0.601,3.214 1.806,4.412 1.203,1.2 2.659,1.794 4.357,1.794 0.013,0 0.02,0 0.03,0 v 1.426 c -2.159,-0.005 -3.987,-0.746 -5.477,-2.232 -1.49,-1.482 -2.242,-3.282 -2.242,-5.399 0,-1.4 0.343,-2.71 1.021,-3.906 0.679,-1.204 1.609,-2.141 2.783,-2.825 1.179,-0.682 2.446,-1.022 3.815,-1.022 z"
         inkscape:connector-curvature="0"
         style="fill:#ffffff;fill-opacity:1" />
      <path
         id="path13652"
         d="m 430.629,458.597 c 0.341,-0.1 0.706,-0.15 1.098,-0.15 1.033,0 1.872,0.338 2.513,1.008 0.64,0.668 0.963,1.453 0.963,2.363 0,0.639 -0.152,1.238 -0.459,1.799 -0.308,0.556 -0.904,1.322 -1.787,2.271 l -2.801,3.028 h 5.2 v 1.086 h -7.65 l 4.303,-4.652 c 0.877,-0.934 1.441,-1.623 1.708,-2.082 0.261,-0.445 0.393,-0.924 0.393,-1.426 0,-0.63 -0.239,-1.174 -0.711,-1.632 -0.472,-0.454 -1.051,-0.686 -1.738,-0.686 -0.388,0 -0.746,0.068 -1.064,0.211 0.027,-0.273 0.041,-0.55 0.041,-0.827 -0.002,-0.104 -0.004,-0.209 -0.009,-0.311 z"
         inkscape:connector-curvature="0"
         style="fill:#ffffff;fill-opacity:1" />
    </g>
    <g
       aria-label="MICRO INTEGRATOR  DASHBOARD"
       style="font-style:normal;font-variant:normal;font-weight:normal;font-stretch:normal;font-size:3.88055563px;line-height:1.25;font-family:'Open Sans';-inkscape-font-specification:'Open Sans, Normal';font-variant-ligatures:normal;font-variant-caps:normal;font-variant-numeric:normal;font-feature-settings:normal;text-align:start;letter-spacing:0px;word-spacing:0px;writing-mode:lr-tb;text-anchor:start;fill:#ffffff;fill-opacity:1;stroke:none;stroke-width:0.26458332"
       id="text851">
      <path
         d="m 44.224281,-79.880203 -0.939822,-2.455664 h -0.01516 q 0.02653,0.291799 0.02653,0.693497 v 1.762167 h -0.297484 v -2.770202 h 0.48507 l 0.877293,2.285132 h 0.01516 l 0.884872,-2.285132 h 0.48128 v 2.770202 h -0.322116 v -1.784904 q 0,-0.306958 0.02653,-0.666971 h -0.01516 l -0.947402,2.451875 z"
         style="fill:#ffffff;fill-opacity:1;stroke-width:0.26458332"
         id="path2051" />
      <path
         d="m 46.499939,-79.880203 v -2.770202 h 0.322117 v 2.770202 z"
         style="fill:#ffffff;fill-opacity:1;stroke-width:0.26458332"
         id="path2053" />
      <path
         d="m 48.769913,-82.402185 q -0.456648,0 -0.72192,0.305063 -0.263378,0.303168 -0.263378,0.831818 0,0.543808 0.253904,0.841292 0.255798,0.29559 0.727604,0.29559 0.289905,0 0.661286,-0.104215 v 0.282326 q -0.28801,0.108004 -0.710551,0.108004 -0.612021,0 -0.945506,-0.371381 -0.331591,-0.371382 -0.331591,-1.055406 0,-0.428225 0.159164,-0.750341 0.161058,-0.322117 0.462331,-0.496439 0.303169,-0.174321 0.712446,-0.174321 0.435805,0 0.761711,0.159163 l -0.136426,0.276641 q -0.314537,-0.147794 -0.629074,-0.147794 z"
         style="fill:#ffffff;fill-opacity:1;stroke-width:0.26458332"
         id="path2055" />
      <path
         d="m 50.353967,-81.032243 v 1.15204 h -0.322116 v -2.770202 h 0.759816 q 0.509702,0 0.752236,0.195165 0.24443,0.195165 0.24443,0.587389 0,0.549493 -0.557072,0.742762 l 0.752237,1.244886 h -0.380856 l -0.67076,-1.15204 z m 0,-0.276641 h 0.441489 q 0.341065,0 0.500228,-0.134531 0.159164,-0.136426 0.159164,-0.407383 0,-0.274746 -0.162953,-0.396014 -0.161058,-0.121267 -0.519176,-0.121267 h -0.418752 z"
         style="fill:#ffffff;fill-opacity:1;stroke-width:0.26458332"
         id="path2057" />
      <path
         d="m 54.838965,-81.269094 q 0,0.665076 -0.337275,1.045931 -0.33538,0.380856 -0.934138,0.380856 -0.612021,0 -0.945506,-0.373276 -0.331591,-0.375171 -0.331591,-1.0573 0,-0.676445 0.333486,-1.047826 0.333485,-0.373276 0.947401,-0.373276 0.596863,0 0.932243,0.37896 0.33538,0.378961 0.33538,1.045931 z m -2.207445,0 q 0,0.562757 0.238745,0.854556 0.24064,0.289905 0.697287,0.289905 0.460437,0 0.695393,-0.289905 0.234955,-0.289904 0.234955,-0.854556 0,-0.558966 -0.234955,-0.846976 -0.233061,-0.289905 -0.691603,-0.289905 -0.460437,0 -0.701077,0.2918 -0.238745,0.289904 -0.238745,0.845081 z"
         style="fill:#ffffff;fill-opacity:1;stroke-width:0.26458332"
         id="path2059" />
      <path
         d="m 56.4666,-79.880203 v -2.770202 h 0.322117 v 2.770202 z"
         style="fill:#ffffff;fill-opacity:1;stroke-width:0.26458332"
         id="path2061" />
      <path
         d="M 59.714292,-79.880203 H 59.3467 l -1.513947,-2.324923 h -0.01516 q 0.03032,0.409277 0.03032,0.750342 v 1.574581 h -0.297484 v -2.770202 h 0.363802 l 1.510158,2.315449 h 0.01516 q -0.0038,-0.05116 -0.01705,-0.327801 -0.01326,-0.278536 -0.0095,-0.397908 v -1.58974 h 0.301274 z"
         style="fill:#ffffff;fill-opacity:1;stroke-width:0.26458332"
         id="path2063" />
      <path
         d="m 61.328665,-79.880203 h -0.322117 v -2.484086 h -0.877293 v -0.286116 h 2.076703 v 0.286116 h -0.877293 z"
         style="fill:#ffffff;fill-opacity:1;stroke-width:0.26458332"
         id="path2065" />
      <path
         d="M 64.165184,-79.880203 H 62.62092 v -2.770202 h 1.544264 v 0.286116 h -1.222148 v 0.892452 h 1.148251 v 0.28422 h -1.148251 v 1.019404 h 1.222148 z"
         style="fill:#ffffff;fill-opacity:1;stroke-width:0.26458332"
         id="path2067" />
      <path
         d="m 65.999352,-81.331622 h 0.941717 v 1.347205 q -0.219797,0.07011 -0.447173,0.106109 -0.227377,0.036 -0.526755,0.036 -0.629075,0 -0.979613,-0.373276 -0.350539,-0.375171 -0.350539,-1.049721 0,-0.432015 0.172427,-0.756026 0.174322,-0.325906 0.500228,-0.496438 0.325906,-0.172427 0.763606,-0.172427 0.443383,0 0.826133,0.162953 l -0.125057,0.28422 q -0.37517,-0.159163 -0.721919,-0.159163 -0.505913,0 -0.790133,0.301273 -0.28422,0.301274 -0.28422,0.835608 0,0.560862 0.272851,0.850766 0.274747,0.289905 0.805291,0.289905 0.28801,0 0.562757,-0.06632 v -0.852661 h -0.619601 z"
         style="fill:#ffffff;fill-opacity:1;stroke-width:0.26458332"
         id="path2069" />
      <path
         d="m 67.930156,-81.032243 v 1.15204 H 67.60804 v -2.770202 h 0.759815 q 0.509702,0 0.752237,0.195165 0.24443,0.195165 0.24443,0.587389 0,0.549493 -0.557072,0.742762 l 0.752236,1.244886 h -0.380855 l -0.67076,-1.15204 z m 0,-0.276641 h 0.441489 q 0.341064,0 0.500228,-0.134531 0.159163,-0.136426 0.159163,-0.407383 0,-0.274746 -0.162953,-0.396014 -0.161058,-0.121267 -0.519176,-0.121267 h -0.418751 z"
         style="fill:#ffffff;fill-opacity:1;stroke-width:0.26458332"
         id="path2071" />
      <path
         d="m 71.751972,-79.880203 -0.344854,-0.881083 h -1.110354 l -0.341065,0.881083 h -0.325906 l 1.095196,-2.78157 h 0.270957 l 1.089511,2.78157 z m -0.445279,-1.170988 -0.322116,-0.858346 q -0.06253,-0.162953 -0.128847,-0.399803 -0.04169,0.181901 -0.119372,0.399803 l -0.325906,0.858346 z"
         style="fill:#ffffff;fill-opacity:1;stroke-width:0.26458332"
         id="path2073" />
      <path
         d="m 73.318975,-79.880203 h -0.322116 v -2.484086 h -0.877294 v -0.286116 h 2.076704 v 0.286116 h -0.877294 z"
         style="fill:#ffffff;fill-opacity:1;stroke-width:0.26458332"
         id="path2075" />
      <path
         d="m 77.015735,-81.269094 q 0,0.665076 -0.337275,1.045931 -0.33538,0.380856 -0.934137,0.380856 -0.612022,0 -0.945507,-0.373276 -0.33159,-0.375171 -0.33159,-1.0573 0,-0.676445 0.333485,-1.047826 0.333485,-0.373276 0.947401,-0.373276 0.596863,0 0.932243,0.37896 0.33538,0.378961 0.33538,1.045931 z m -2.207445,0 q 0,0.562757 0.238745,0.854556 0.24064,0.289905 0.697288,0.289905 0.460437,0 0.695392,-0.289905 0.234956,-0.289904 0.234956,-0.854556 0,-0.558966 -0.234956,-0.846976 -0.233061,-0.289905 -0.691603,-0.289905 -0.460437,0 -0.701077,0.2918 -0.238745,0.289904 -0.238745,0.845081 z"
         style="fill:#ffffff;fill-opacity:1;stroke-width:0.26458332"
         id="path2077" />
      <path
         d="m 77.95745,-81.032243 v 1.15204 h -0.322116 v -2.770202 h 0.759816 q 0.509701,0 0.752236,0.195165 0.24443,0.195165 0.24443,0.587389 0,0.549493 -0.557072,0.742762 l 0.752236,1.244886 h -0.380855 l -0.67076,-1.15204 z m 0,-0.276641 h 0.441489 q 0.341065,0 0.500228,-0.134531 0.159163,-0.136426 0.159163,-0.407383 0,-0.274746 -0.162953,-0.396014 -0.161058,-0.121267 -0.519175,-0.121267 H 77.95745 Z"
         style="fill:#ffffff;fill-opacity:1;stroke-width:0.26458332"
         id="path2079" />
      <path
         d="m 84.26525,-81.291831 q 0,0.685918 -0.373276,1.04972 -0.371381,0.361908 -1.070563,0.361908 h -0.767395 v -2.770202 h 0.848871 q 0.646128,0 1.004246,0.358118 0.358117,0.358118 0.358117,1.000456 z m -0.341064,0.01137 q 0,-0.541914 -0.272852,-0.81666 -0.270956,-0.274747 -0.807185,-0.274747 h -0.468017 v 2.21313 h 0.392224 q 0.57602,0 0.865925,-0.282326 0.289905,-0.28422 0.289905,-0.839397 z"
         style="fill:#ffffff;fill-opacity:1;stroke-width:0.26458332"
         id="path2081" />
      <path
         d="m 86.622385,-79.880203 -0.344854,-0.881083 h -1.110355 l -0.341064,0.881083 h -0.325906 l 1.095196,-2.78157 h 0.270957 l 1.089511,2.78157 z m -0.445279,-1.170988 -0.322116,-0.858346 q -0.06253,-0.162953 -0.128847,-0.399803 -0.04168,0.181901 -0.119372,0.399803 l -0.325906,0.858346 z"
         style="fill:#ffffff;fill-opacity:1;stroke-width:0.26458332"
         id="path2083" />
      <path
         d="m 88.899935,-80.617281 q 0,0.365696 -0.265272,0.570335 -0.265273,0.204639 -0.720025,0.204639 -0.492649,0 -0.757921,-0.126952 v -0.310748 q 0.170532,0.072 0.371381,0.113689 0.200849,0.04169 0.397909,0.04169 0.322116,0 0.485069,-0.121267 0.162953,-0.123162 0.162953,-0.341065 0,-0.144005 -0.05874,-0.234955 -0.05684,-0.09284 -0.19327,-0.170532 -0.134531,-0.07769 -0.411172,-0.176217 -0.386539,-0.138321 -0.553282,-0.327801 -0.164848,-0.18948 -0.164848,-0.494543 0,-0.320222 0.24064,-0.509702 0.24064,-0.18948 0.636654,-0.18948 0.413067,0 0.759815,0.151584 l -0.100424,0.280431 q -0.342959,-0.144005 -0.666971,-0.144005 -0.255798,0 -0.399803,0.109898 -0.144005,0.109899 -0.144005,0.305063 0,0.144005 0.05306,0.236851 0.05305,0.09095 0.178111,0.168637 0.126952,0.07579 0.38654,0.168637 0.435804,0.155374 0.598757,0.333486 0.164848,0.178111 0.164848,0.462332 z"
         style="fill:#ffffff;fill-opacity:1;stroke-width:0.26458332"
         id="path2085" />
      <path
         d="m 91.569715,-79.880203 h -0.322117 v -1.303624 H 89.7886 v 1.303624 h -0.322116 v -2.770202 H 89.7886 v 1.178568 h 1.458998 v -1.178568 h 0.322117 z"
         style="fill:#ffffff;fill-opacity:1;stroke-width:0.26458332"
         id="path2087" />
      <path
         d="m 92.331424,-82.650405 h 0.782554 q 0.551387,0 0.797712,0.164848 0.246324,0.164848 0.246324,0.521071 0,0.246324 -0.13832,0.407382 -0.136426,0.159164 -0.399804,0.206534 v 0.01895 q 0.630969,0.108004 0.630969,0.663181 0,0.371381 -0.252008,0.579809 -0.250114,0.208429 -0.701077,0.208429 h -0.96635 z m 0.322117,1.186147 h 0.530545 q 0.341064,0 0.490753,-0.106109 0.14969,-0.108004 0.14969,-0.361907 0,-0.233061 -0.166743,-0.33538 -0.166742,-0.104215 -0.530544,-0.104215 h -0.473701 z m 0,0.272851 v 1.036457 h 0.577915 q 0.33538,0 0.504017,-0.128846 0.170532,-0.130742 0.170532,-0.407383 0,-0.257693 -0.174321,-0.37896 -0.172427,-0.121268 -0.526756,-0.121268 z"
         style="fill:#ffffff;fill-opacity:1;stroke-width:0.26458332"
         id="path2089" />
      <path
         d="m 97.252225,-81.269094 q 0,0.665076 -0.337275,1.045931 -0.33538,0.380856 -0.934137,0.380856 -0.612021,0 -0.945507,-0.373276 -0.33159,-0.375171 -0.33159,-1.0573 0,-0.676445 0.333485,-1.047826 0.333485,-0.373276 0.947401,-0.373276 0.596863,0 0.932243,0.37896 0.33538,0.378961 0.33538,1.045931 z m -2.207445,0 q 0,0.562757 0.238745,0.854556 0.24064,0.289905 0.697288,0.289905 0.460437,0 0.695392,-0.289905 0.234956,-0.289904 0.234956,-0.854556 0,-0.558966 -0.234956,-0.846976 -0.23306,-0.289905 -0.691603,-0.289905 -0.460437,0 -0.701077,0.2918 -0.238745,0.289904 -0.238745,0.845081 z"
         style="fill:#ffffff;fill-opacity:1;stroke-width:0.26458332"
         id="path2091" />
      <path
         d="m 99.613149,-79.880203 -0.344854,-0.881083 h -1.110354 l -0.341064,0.881083 h -0.325906 l 1.095195,-2.78157 h 0.270957 l 1.089512,2.78157 z m -0.445278,-1.170988 -0.322117,-0.858346 q -0.06253,-0.162953 -0.128846,-0.399803 -0.04169,0.181901 -0.119373,0.399803 l -0.325906,0.858346 z"
         style="fill:#ffffff;fill-opacity:1;stroke-width:0.26458332"
         id="path2093" />
      <path
         d="m 100.64961,-81.032243 v 1.15204 h -0.32212 v -2.770202 h 0.75982 q 0.5097,0 0.75223,0.195165 0.24443,0.195165 0.24443,0.587389 0,0.549493 -0.55707,0.742762 l 0.75224,1.244886 h -0.38086 l -0.67076,-1.15204 z m 0,-0.276641 h 0.44149 q 0.34106,0 0.50022,-0.134531 0.15917,-0.136426 0.15917,-0.407383 0,-0.274746 -0.16295,-0.396014 -0.16106,-0.121267 -0.51918,-0.121267 h -0.41875 z"
         style="fill:#ffffff;fill-opacity:1;stroke-width:0.26458332"
         id="path2095" />
      <path
         d="m 104.94133,-81.291831 q 0,0.685918 -0.37327,1.04972 -0.37138,0.361908 -1.07057,0.361908 h -0.76739 v -2.770202 h 0.84887 q 0.64613,0 1.00425,0.358118 0.35811,0.358118 0.35811,1.000456 z m -0.34106,0.01137 q 0,-0.541914 -0.27285,-0.81666 -0.27096,-0.274747 -0.80719,-0.274747 h -0.46802 v 2.21313 h 0.39223 q 0.57602,0 0.86592,-0.282326 0.28991,-0.28422 0.28991,-0.839397 z"
         style="fill:#ffffff;fill-opacity:1;stroke-width:0.26458332"
         id="path2097" />
    </g>
  </g>
  <style
     type="text/css"
     id="style4833">
	.st0{display:none;fill:#FFFFFF;stroke:#1D56A0;stroke-width:0.75;}
	.st1{fill:#FFFFFF;stroke:#1D56A0;stroke-width:0.75;stroke-miterlimit:10;}
	.st2{fill:#FFFFFF;stroke:#1D56A0;stroke-width:0.75;}
	.st3{fill:none;stroke:#1D56A0;stroke-width:0.75;}
	.st4{clip-path:url(#SVGID_2_);fill:#FFFFFF;stroke:#1D56A0;stroke-width:0.75;}
	.st5{fill:none;stroke:#1D56A0;stroke-width:0.75;stroke-miterlimit:10;}
	.st6{fill:#FFFFFF;stroke:#E73847;stroke-width:0.75;stroke-miterlimit:10;}
</style>
  <style
     type="text/css"
     id="style4833-0">
	.st0{display:none;fill:#FFFFFF;stroke:#1D56A0;stroke-width:0.75;}
	.st1{fill:#FFFFFF;stroke:#1D56A0;stroke-width:0.75;stroke-miterlimit:10;}
	.st2{fill:#FFFFFF;stroke:#1D56A0;stroke-width:0.75;}
	.st3{fill:none;stroke:#1D56A0;stroke-width:0.75;}
	.st4{clip-path:url(#SVGID_2_);fill:#FFFFFF;stroke:#1D56A0;stroke-width:0.75;}
	.st5{fill:none;stroke:#1D56A0;stroke-width:0.75;stroke-miterlimit:10;}
	.st6{fill:#FFFFFF;stroke:#E73847;stroke-width:0.75;stroke-miterlimit:10;}
</style>
  <style
     id="style4833-9"
     type="text/css">
	.st0{display:none;fill:#FFFFFF;stroke:#1D56A0;stroke-width:0.75;}
	.st1{fill:#FFFFFF;stroke:#1D56A0;stroke-width:0.75;stroke-miterlimit:10;}
	.st2{fill:#FFFFFF;stroke:#1D56A0;stroke-width:0.75;}
	.st3{fill:none;stroke:#1D56A0;stroke-width:0.75;}
	.st4{clip-path:url(#SVGID_2_);fill:#FFFFFF;stroke:#1D56A0;stroke-width:0.75;}
	.st5{fill:none;stroke:#1D56A0;stroke-width:0.75;stroke-miterlimit:10;}
	.st6{fill:#FFFFFF;stroke:#E73847;stroke-width:0.75;stroke-miterlimit:10;}
</style>
  <style
     id="style4833-0-6"
     type="text/css">
	.st0{display:none;fill:#FFFFFF;stroke:#1D56A0;stroke-width:0.75;}
	.st1{fill:#FFFFFF;stroke:#1D56A0;stroke-width:0.75;stroke-miterlimit:10;}
	.st2{fill:#FFFFFF;stroke:#1D56A0;stroke-width:0.75;}
	.st3{fill:none;stroke:#1D56A0;stroke-width:0.75;}
	.st4{clip-path:url(#SVGID_2_);fill:#FFFFFF;stroke:#1D56A0;stroke-width:0.75;}
	.st5{fill:none;stroke:#1D56A0;stroke-width:0.75;stroke-miterlimit:10;}
	.st6{fill:#FFFFFF;stroke:#E73847;stroke-width:0.75;stroke-miterlimit:10;}
</style>
</svg>
