<?xml version="1.0" encoding="UTF-8" standalone="no"?>
<!-- Created with Inkscape (http://www.inkscape.org/) -->

<svg
   width="61.943mm"
   height="11.979mm"
   version="1.1"
   viewBox="0 0 61.943 11.979"
   id="svg8"
   sodipodi:docname="logo-inverse.svg"
   inkscape:version="1.3 (0e150ed, 2023-07-21)"
   xmlns:inkscape="http://www.inkscape.org/namespaces/inkscape"
   xmlns:sodipodi="http://sodipodi.sourceforge.net/DTD/sodipodi-0.dtd"
   xmlns="http://www.w3.org/2000/svg"
   xmlns:svg="http://www.w3.org/2000/svg"
   xmlns:rdf="http://www.w3.org/1999/02/22-rdf-syntax-ns#"
   xmlns:cc="http://creativecommons.org/ns#"
   xmlns:dc="http://purl.org/dc/elements/1.1/">
  <defs
     id="defs8" />
  <sodipodi:namedview
     id="namedview8"
     pagecolor="#ffffff"
     bordercolor="#000000"
     borderopacity="0.25"
     inkscape:showpageshadow="2"
     inkscape:pageopacity="0.0"
     inkscape:pagecheckerboard="0"
     inkscape:deskcolor="#d1d1d1"
     inkscape:document-units="mm"
     inkscape:zoom="4.2308239"
     inkscape:cx="148.19809"
     inkscape:cy="43.726708"
     inkscape:window-width="1312"
     inkscape:window-height="449"
     inkscape:window-x="0"
     inkscape:window-y="38"
     inkscape:window-maximized="0"
     inkscape:current-layer="g5" />
  <metadata
     id="metadata1">
    <rdf:RDF>
      <cc:Work
         rdf:about="">
        <dc:format>image/svg+xml</dc:format>
        <dc:type
           rdf:resource="http://purl.org/dc/dcmitype/StillImage" />
      </cc:Work>
    </rdf:RDF>
  </metadata>
  <g
     transform="translate(-42.998 91.821)"
     id="g5">
    <g
       transform="matrix(.40962 0 0 .40962 -94.642 -276.71)"
       id="g4">
      <path
         d="m422.38 465.64c3.662 0 6.655-2.989 6.655-6.657 0-3.664-2.993-6.65-6.655-6.65-3.67 0-6.656 2.986-6.656 6.65 0 3.667 2.986 6.657 6.656 6.657z"
         clip-rule="evenodd"
         fill="#f47b20"
         fill-rule="evenodd"
         id="path1" />
      <polyline
         points="415.79 459.82 420.2 459.84 422.4 454.94 425.15 461.64 426.6 459.04 429.02 459.03"
         clip-rule="evenodd"
         fill="none"
         stroke="#d7d7d7"
         stroke-width=".7195"
         id="polyline1" />
      <path
         d="m406.56 452.27h0.559l-0.559 1.396zm0 11.806c0.248 0.437 0.554 0.812 0.925 1.11 0.724 0.61 1.646 0.912 2.76 0.912 1.185 0 2.184-0.409 3.021-1.215 0.827-0.808 1.241-1.794 1.241-2.969 0-1.046-0.334-1.844-1-2.385-0.668-0.547-1.379-0.986-2.138-1.329l-0.39-0.183-0.366-0.162c-0.693-0.355-1.263-0.688-1.715-0.994-0.446-0.318-0.673-0.772-0.673-1.37 0-0.601 0.227-1.084 0.686-1.46 0.455-0.376 1.009-0.564 1.659-0.564 0.425 0 0.782 0.085 1.084 0.249 0.297 0.168 0.582 0.427 0.853 0.792l0.143 0.227c0.045 0.032 0.099 0.096 0.166 0.202l1.203-0.772c-0.396-0.697-0.886-1.218-1.481-1.584-0.591-0.355-1.227-0.534-1.902-0.534-1.16 0-2.103 0.321-2.831 0.978-0.738 0.654-1.104 1.484-1.104 2.51 0 0.965 0.334 1.706 0.999 2.232 0.663 0.527 1.379 0.952 2.141 1.296l0.247 0.121 0.242 0.102c0.734 0.365 1.356 0.73 1.875 1.079 0.517 0.357 0.773 0.881 0.773 1.575 0 0.784-0.26 1.441-0.782 1.965-0.526 0.523-1.188 0.787-1.989 0.787-0.706 0-1.292-0.217-1.753-0.654-0.467-0.435-0.789-1.059-0.979-1.874l-0.913 0.277v1.635zm-13.371-1.628 4.259-10.893 4.021 10.913 3.997-10.198h1.093v1.396l-5.136 12.908-4.015-10.898-4.285 10.884-5.22-14.29h1.651zm13.371-8e-3 -0.56 0.169c0.13 0.551 0.318 1.042 0.56 1.467z"
         fill="#f47b20"
         id="path2" />
      <path
         d="m422.41 451.38c2.174 0.022 3.996 0.765 5.47 2.216 1.493 1.488 2.238 3.311 2.238 5.474 0 2.146-0.742 3.967-2.234 5.456-1.495 1.496-3.309 2.239-5.454 2.239h-0.02v-1.426c1.124 0 2.165-0.275 3.121-0.823 0.968-0.554 1.721-1.308 2.263-2.261 0.54-0.953 0.813-2.02 0.813-3.186 0-1.163-0.273-2.216-0.813-3.151-0.542-0.941-1.304-1.692-2.284-2.26-0.976-0.558-2.008-0.84-3.1-0.84zm-0.099 0h0.1v1.438h-0.03c-1.086 0-2.107 0.274-3.077 0.84-0.972 0.567-1.725 1.329-2.273 2.285-0.539 0.958-0.813 2.023-0.813 3.189 0 1.747 0.601 3.214 1.806 4.412 1.203 1.2 2.659 1.794 4.357 1.794h0.03v1.426c-2.159-5e-3 -3.987-0.746-5.477-2.232-1.49-1.482-2.242-3.282-2.242-5.399 0-1.4 0.343-2.71 1.021-3.906 0.679-1.204 1.609-2.141 2.783-2.825 1.179-0.682 2.446-1.022 3.815-1.022z"
         id="path3" />
      <path
         d="m430.63 458.6c0.341-0.1 0.706-0.15 1.098-0.15 1.033 0 1.872 0.338 2.513 1.008 0.64 0.668 0.963 1.453 0.963 2.363 0 0.639-0.152 1.238-0.459 1.799-0.308 0.556-0.904 1.322-1.787 2.271l-2.801 3.028h5.2v1.086h-7.65l4.303-4.652c0.877-0.934 1.441-1.623 1.708-2.082 0.261-0.445 0.393-0.924 0.393-1.426 0-0.63-0.239-1.174-0.711-1.632-0.472-0.454-1.051-0.686-1.738-0.686-0.388 0-0.746 0.068-1.064 0.211 0.027-0.273 0.041-0.55 0.041-0.827-2e-3 -0.104-4e-3 -0.209-9e-3 -0.311z"
         id="path4" />
    </g>
    <path
       style="font-size:3.8806px;font-family:Sans;stroke-width:0.34"
       d="m 44.469321,-79.901047 h -1.114157 v -0.288013 h 0.369491 v -2.245367 h -0.369491 v -0.288013 h 1.114157 v 0.288013 H 44.09983 v 2.245367 h 0.369491 z m 2.791076,0 h -0.464232 l -1.337746,-2.523906 v 2.523906 h -0.350542 v -2.821393 h 0.581711 l 1.220267,2.304106 v -2.304106 h 0.350542 z m 2.762654,-2.487904 h -1.008047 v 2.487904 h -0.375175 v -2.487904 h -1.008046 v -0.333489 h 2.391268 z m 2.237787,2.487904 h -1.858822 v -2.821393 h 1.858822 v 0.333489 h -1.483647 v 0.773088 h 1.483647 v 0.333489 h -1.483647 v 1.047838 h 1.483647 z m 2.948347,-0.20843 q -0.231168,0.10611 -0.505918,0.185692 -0.272855,0.07769 -0.528656,0.07769 -0.329699,0 -0.604449,-0.09095 -0.274749,-0.09095 -0.468021,-0.272855 -0.195167,-0.183798 -0.301277,-0.458548 -0.106111,-0.276644 -0.106111,-0.646135 0,-0.676452 0.394124,-1.066786 0.396018,-0.392228 1.085734,-0.392228 0.240643,0 0.49076,0.05874 0.252011,0.05684 0.541919,0.195167 v 0.445284 h -0.03411 q -0.05874,-0.04548 -0.170534,-0.119374 -0.111794,-0.0739 -0.219799,-0.123164 -0.130743,-0.05874 -0.297488,-0.09664 -0.164849,-0.03979 -0.375175,-0.03979 -0.473706,0 -0.75035,0.305067 -0.27475,0.303172 -0.27475,0.822353 0,0.547605 0.288013,0.852671 0.288014,0.303172 0.784458,0.303172 0.181903,0 0.361911,-0.036 0.181903,-0.036 0.318331,-0.09285 v -0.691611 h -0.756035 v -0.329699 h 1.12742 z m 2.990032,0.20843 h -0.48697 l -0.943623,-1.121736 h -0.528656 v 1.121736 h -0.375175 v -2.821393 h 0.790142 q 0.255801,0 0.426335,0.03411 0.170535,0.03221 0.306962,0.117479 0.153481,0.09664 0.238748,0.244432 0.08716,0.145902 0.08716,0.371386 0,0.305067 -0.153481,0.511602 -0.153481,0.204641 -0.422546,0.308857 z m -0.877304,-2.027462 q 0,-0.121268 -0.04358,-0.214115 -0.04169,-0.09474 -0.140217,-0.159165 -0.08148,-0.05495 -0.193272,-0.07579 -0.111795,-0.02274 -0.263381,-0.02274 h -0.441494 v 1.064891 h 0.378965 q 0.178114,0 0.310751,-0.03032 0.132638,-0.03221 0.225485,-0.117479 0.08527,-0.07958 0.125058,-0.181903 0.04169,-0.104215 0.04169,-0.263381 z m 3.465635,2.027462 H 60.38774 l -0.276645,-0.786352 h -1.220266 l -0.276645,0.786352 h -0.380859 l 1.026994,-2.821393 h 0.500234 z m -0.792037,-1.108472 -0.494549,-1.385116 -0.496444,1.385116 z m 3.005191,-1.379432 h -1.008046 v 2.487904 h -0.375175 v -2.487904 h -1.008047 v -0.333489 h 2.391268 z m 1.373747,2.487904 h -1.114156 v -0.288013 h 0.369491 v -2.245367 h -0.369491 v -0.288013 h 1.114156 v 0.288013 h -0.36949 v 2.245367 h 0.36949 z m 2.741812,-2.497378 q 0.172429,0.189482 0.26338,0.464232 0.09285,0.274749 0.09285,0.623397 0,0.348648 -0.09474,0.625292 -0.09285,0.27475 -0.261485,0.458547 -0.174324,0.191378 -0.413072,0.288014 -0.236853,0.09664 -0.54192,0.09664 -0.297487,0 -0.54192,-0.09853 -0.242537,-0.09853 -0.413071,-0.286119 -0.170534,-0.187587 -0.263381,-0.460442 -0.09095,-0.272854 -0.09095,-0.623397 0,-0.344858 0.09095,-0.617713 0.09095,-0.274749 0.265276,-0.469916 0.166744,-0.185693 0.413071,-0.284224 0.248222,-0.09853 0.540025,-0.09853 0.303172,0 0.543815,0.100426 0.242537,0.09853 0.411177,0.282329 z m -0.03411,1.087629 q 0,-0.549499 -0.246327,-0.846986 -0.246328,-0.299383 -0.672663,-0.299383 -0.430125,0 -0.676452,0.299383 -0.244433,0.297487 -0.244433,0.846986 0,0.555184 0.250117,0.850776 0.250117,0.293698 0.670768,0.293698 0.420651,0 0.668873,-0.293698 0.250117,-0.295592 0.250117,-0.850776 z m 3.137829,1.409749 h -0.464232 l -1.337746,-2.523906 v 2.523906 h -0.350543 v -2.821393 h 0.581711 l 1.220267,2.304106 v -2.304106 h 0.350543 z m 4.29367,-0.204641 q -0.104215,0.04548 -0.189482,0.08527 -0.08337,0.03979 -0.2198,0.08337 -0.115584,0.036 -0.252011,0.06063 -0.134533,0.02653 -0.297488,0.02653 -0.306961,0 -0.558973,-0.08527 -0.250117,-0.08716 -0.435809,-0.270959 -0.181903,-0.180009 -0.284224,-0.456653 -0.10232,-0.278539 -0.10232,-0.646135 0,-0.348648 0.09853,-0.623397 0.09853,-0.27475 0.284224,-0.464232 0.180008,-0.183798 0.433915,-0.280434 0.255801,-0.09664 0.566552,-0.09664 0.227379,0 0.452863,0.05495 0.227379,0.05495 0.504023,0.193272 v 0.445283 h -0.02842 q -0.233063,-0.195166 -0.462337,-0.284223 -0.229274,-0.08906 -0.490759,-0.08906 -0.214116,0 -0.386545,0.07011 -0.170534,0.06821 -0.305066,0.214115 -0.130743,0.142111 -0.204641,0.360016 -0.072,0.21601 -0.072,0.500234 0,0.297487 0.07958,0.511602 0.08148,0.214116 0.208431,0.348648 0.132637,0.140217 0.308856,0.208431 0.178113,0.06632 0.375175,0.06632 0.27096,0 0.507813,-0.09285 0.236853,-0.09285 0.443389,-0.278539 h 0.02653 z m 2.633806,-2.292737 q 0.172429,0.189482 0.263381,0.464232 0.09285,0.274749 0.09285,0.623397 0,0.348648 -0.09474,0.625292 -0.09285,0.27475 -0.261486,0.458547 -0.174324,0.191378 -0.413072,0.288014 -0.236853,0.09664 -0.541919,0.09664 -0.297488,0 -0.54192,-0.09853 -0.242538,-0.09853 -0.413072,-0.286119 -0.170534,-0.187587 -0.26338,-0.460442 -0.09095,-0.272854 -0.09095,-0.623397 0,-0.344858 0.09095,-0.617713 0.09095,-0.274749 0.265275,-0.469916 0.166745,-0.185693 0.413072,-0.284224 0.248222,-0.09853 0.540025,-0.09853 0.303172,0 0.543814,0.100426 0.242538,0.09853 0.411177,0.282329 z m -0.03411,1.087629 q 0,-0.549499 -0.246327,-0.846986 -0.246327,-0.299383 -0.672663,-0.299383 -0.430125,0 -0.676452,0.299383 -0.244432,0.297487 -0.244432,0.846986 0,0.555184 0.250117,0.850776 0.250116,0.293698 0.670767,0.293698 0.420651,0 0.668873,-0.293698 0.250117,-0.295592 0.250117,-0.850776 z m 3.137829,1.409749 h -0.464232 l -1.337746,-2.523906 v 2.523906 h -0.350542 v -2.821393 h 0.581711 l 1.220267,2.304106 v -2.304106 h 0.350542 z m 2.762653,-2.487904 h -1.008046 v 2.487904 h -0.375175 v -2.487904 h -1.008047 v -0.333489 h 2.391268 z m 2.71339,2.487904 h -0.48697 l -0.943622,-1.121736 h -0.528656 v 1.121736 h -0.375175 v -2.821393 h 0.790141 q 0.255802,0 0.426336,0.03411 0.170534,0.03221 0.306961,0.117479 0.153481,0.09664 0.238748,0.244432 0.08716,0.145902 0.08716,0.371386 0,0.305067 -0.153481,0.511602 -0.15348,0.204641 -0.422545,0.308857 z m -0.877303,-2.027462 q 0,-0.121268 -0.04358,-0.214115 -0.04169,-0.09474 -0.140217,-0.159165 -0.08148,-0.05495 -0.193272,-0.07579 -0.111795,-0.02274 -0.263381,-0.02274 h -0.441494 v 1.064891 h 0.378965 q 0.178113,0 0.310751,-0.03032 0.132638,-0.03221 0.225484,-0.117479 0.08527,-0.07958 0.125058,-0.181903 0.04169,-0.104215 0.04169,-0.263381 z m 3.344365,-0.469916 q 0.172429,0.189482 0.263381,0.464232 0.09285,0.274749 0.09285,0.623397 0,0.348648 -0.09474,0.625292 -0.09285,0.27475 -0.261486,0.458547 -0.174323,0.191378 -0.413071,0.288014 -0.236853,0.09664 -0.54192,0.09664 -0.297487,0 -0.54192,-0.09853 -0.242537,-0.09853 -0.413071,-0.286119 -0.170535,-0.187587 -0.263381,-0.460442 -0.09095,-0.272854 -0.09095,-0.623397 0,-0.344858 0.09095,-0.617713 0.09095,-0.274749 0.265275,-0.469916 0.166745,-0.185693 0.413072,-0.284224 0.248222,-0.09853 0.540025,-0.09853 0.303172,0 0.543815,0.100426 0.242537,0.09853 0.411176,0.282329 z m -0.03411,1.087629 q 0,-0.549499 -0.246328,-0.846986 -0.246327,-0.299383 -0.672662,-0.299383 -0.430125,0 -0.676452,0.299383 -0.244433,0.297487 -0.244433,0.846986 0,0.555184 0.250117,0.850776 0.250117,0.293698 0.670768,0.293698 0.420651,0 0.668873,-0.293698 0.250117,-0.295592 0.250117,-0.850776 z m 2.770231,1.409749 h -1.784925 v -2.821393 h 0.375175 v 2.487904 h 1.40975 z m 3.585006,-1.968722 q 0,0.187587 -0.06632,0.348648 -0.06442,0.159165 -0.181903,0.276644 -0.145901,0.145901 -0.344858,0.219799 -0.198956,0.072 -0.502128,0.072 h -0.375175 v 1.051627 h -0.375176 v -2.821393 h 0.765509 q 0.253907,0 0.430125,0.04358 0.176219,0.04169 0.312646,0.132638 0.161061,0.108005 0.248222,0.269065 0.08906,0.16106 0.08906,0.407387 z m -0.390334,0.0095 q 0,-0.145901 -0.05116,-0.253906 -0.05116,-0.108005 -0.155375,-0.176219 -0.09095,-0.05874 -0.208431,-0.08337 -0.115584,-0.02653 -0.293698,-0.02653 h -0.371385 v 1.127421 h 0.316435 q 0.227379,0 0.369491,-0.03979 0.142112,-0.04169 0.231169,-0.130743 0.08906,-0.09095 0.125058,-0.191377 0.0379,-0.100426 0.0379,-0.225484 z m 2.669811,1.959248 h -1.784925 v -2.821393 h 0.375175 v 2.487904 h 1.40975 z m 2.599698,0 h -0.399808 l -0.276644,-0.786352 h -1.220267 l -0.276645,0.786352 h -0.380859 l 1.026995,-2.821393 h 0.500233 z m -0.792037,-1.108472 -0.494549,-1.385116 -0.496444,1.385116 z m 3.372785,1.108472 h -0.46423 l -1.33775,-2.523906 v 2.523906 h -0.35054 v -2.821393 h 0.58171 l 1.22027,2.304106 v -2.304106 h 0.35054 z m 2.60917,0 h -1.85882 v -2.821393 h 1.85882 v 0.333489 h -1.48364 v 0.773088 h 1.48364 v 0.333489 h -1.48364 v 1.047838 h 1.48364 z"
       id="text4"
       aria-label="INTEGRATION CONTROL PLANE" />
  </g>
  <style
     type="text/css"
     id="style5">.st0{display:none;fill:#FFFFFF;stroke:#1D56A0;stroke-width:0.75;}&#10;	.st1{fill:#FFFFFF;stroke:#1D56A0;stroke-width:0.75;stroke-miterlimit:10;}&#10;	.st2{fill:#FFFFFF;stroke:#1D56A0;stroke-width:0.75;}&#10;	.st3{fill:none;stroke:#1D56A0;stroke-width:0.75;}&#10;	.st4{clip-path:url(#SVGID_2_);fill:#FFFFFF;stroke:#1D56A0;stroke-width:0.75;}&#10;	.st5{fill:none;stroke:#1D56A0;stroke-width:0.75;stroke-miterlimit:10;}&#10;	.st6{fill:#FFFFFF;stroke:#E73847;stroke-width:0.75;stroke-miterlimit:10;}</style>
  <style
     type="text/css"
     id="style6">.st0{display:none;fill:#FFFFFF;stroke:#1D56A0;stroke-width:0.75;}&#10;	.st1{fill:#FFFFFF;stroke:#1D56A0;stroke-width:0.75;stroke-miterlimit:10;}&#10;	.st2{fill:#FFFFFF;stroke:#1D56A0;stroke-width:0.75;}&#10;	.st3{fill:none;stroke:#1D56A0;stroke-width:0.75;}&#10;	.st4{clip-path:url(#SVGID_2_);fill:#FFFFFF;stroke:#1D56A0;stroke-width:0.75;}&#10;	.st5{fill:none;stroke:#1D56A0;stroke-width:0.75;stroke-miterlimit:10;}&#10;	.st6{fill:#FFFFFF;stroke:#E73847;stroke-width:0.75;stroke-miterlimit:10;}</style>
  <style
     type="text/css"
     id="style7">.st0{display:none;fill:#FFFFFF;stroke:#1D56A0;stroke-width:0.75;}&#10;	.st1{fill:#FFFFFF;stroke:#1D56A0;stroke-width:0.75;stroke-miterlimit:10;}&#10;	.st2{fill:#FFFFFF;stroke:#1D56A0;stroke-width:0.75;}&#10;	.st3{fill:none;stroke:#1D56A0;stroke-width:0.75;}&#10;	.st4{clip-path:url(#SVGID_2_);fill:#FFFFFF;stroke:#1D56A0;stroke-width:0.75;}&#10;	.st5{fill:none;stroke:#1D56A0;stroke-width:0.75;stroke-miterlimit:10;}&#10;	.st6{fill:#FFFFFF;stroke:#E73847;stroke-width:0.75;stroke-miterlimit:10;}</style>
  <style
     type="text/css"
     id="style8">.st0{display:none;fill:#FFFFFF;stroke:#1D56A0;stroke-width:0.75;}&#10;	.st1{fill:#FFFFFF;stroke:#1D56A0;stroke-width:0.75;stroke-miterlimit:10;}&#10;	.st2{fill:#FFFFFF;stroke:#1D56A0;stroke-width:0.75;}&#10;	.st3{fill:none;stroke:#1D56A0;stroke-width:0.75;}&#10;	.st4{clip-path:url(#SVGID_2_);fill:#FFFFFF;stroke:#1D56A0;stroke-width:0.75;}&#10;	.st5{fill:none;stroke:#1D56A0;stroke-width:0.75;stroke-miterlimit:10;}&#10;	.st6{fill:#FFFFFF;stroke:#E73847;stroke-width:0.75;stroke-miterlimit:10;}</style>
</svg>
