<?xml version="1.0" encoding="UTF-8" standalone="no"?>
<!-- Created with Inkscape (http://www.inkscape.org/) -->

<svg
   width="61.942989mm"
   height="11.978629mm"
   viewBox="0 0 61.942989 11.978629"
   version="1.1"
   id="svg8"
   inkscape:version="1.3 (0e150ed, 2023-07-21)"
   sodipodi:docname="logo.svg"
   inkscape:export-filename="/Users/chanakajayasena/Documents/C5/design/prototype/05.png"
   inkscape:export-xdpi="89.941704"
   inkscape:export-ydpi="89.941704"
   xmlns:inkscape="http://www.inkscape.org/namespaces/inkscape"
   xmlns:sodipodi="http://sodipodi.sourceforge.net/DTD/sodipodi-0.dtd"
   xmlns="http://www.w3.org/2000/svg"
   xmlns:svg="http://www.w3.org/2000/svg"
   xmlns:rdf="http://www.w3.org/1999/02/22-rdf-syntax-ns#"
   xmlns:cc="http://creativecommons.org/ns#"
   xmlns:dc="http://purl.org/dc/elements/1.1/">
  <defs
     id="defs2" />
  <sodipodi:namedview
     id="base"
     pagecolor="#949494"
     bordercolor="#666666"
     borderopacity="1.0"
     inkscape:pageopacity="0"
     inkscape:pageshadow="2"
     inkscape:zoom="1.2513869"
     inkscape:cx="46.748133"
     inkscape:cy="-146.63731"
     inkscape:document-units="px"
     inkscape:current-layer="text851"
     showgrid="false"
     inkscape:window-width="1728"
     inkscape:window-height="1080"
     inkscape:window-x="0"
     inkscape:window-y="37"
     inkscape:window-maximized="0"
     fit-margin-top="0"
     fit-margin-left="0"
     fit-margin-right="0"
     fit-margin-bottom="0"
     showguides="true"
     inkscape:guide-bbox="true"
     gridtolerance="1"
     objecttolerance="1"
     guidetolerance="1"
     inkscape:showpageshadow="2"
     inkscape:pagecheckerboard="0"
     inkscape:deskcolor="#d1d1d1">
    <sodipodi:guide
       position="478.75998,-43.537908"
       orientation="1,0"
       id="guide15243"
       inkscape:locked="false" />
  </sodipodi:namedview>
  <metadata
     id="metadata5">
    <rdf:RDF>
      <cc:Work
         rdf:about="">
        <dc:format>image/svg+xml</dc:format>
        <dc:type
           rdf:resource="http://purl.org/dc/dcmitype/StillImage" />
        <dc:title />
      </cc:Work>
    </rdf:RDF>
  </metadata>
  <g
     inkscape:groupmode="layer"
     id="layer11"
     inkscape:label="save"
     transform="translate(-42.998344,91.820936)">
    <g
       inkscape:export-ydpi="90"
       inkscape:export-xdpi="90"
       inkscape:export-filename="tmp.png"
       transform="matrix(0.40961884,0,0,0.40961884,-94.641564,-276.71305)"
       id="g13654"
       style="display:inline">
      <path
         id="path13644"
         d="m 422.376,465.642 c 3.662,0 6.655,-2.989 6.655,-6.657 0,-3.664 -2.993,-6.65 -6.655,-6.65 -3.67,0 -6.656,2.986 -6.656,6.65 0,3.667 2.986,6.657 6.656,6.657 z"
         inkscape:connector-curvature="0"
         style="clip-rule:evenodd;fill:#f47b20;fill-rule:evenodd" />
      <polyline
         id="polyline13646"
         points="415.793,459.825     420.198,459.838 422.402,454.935 425.154,461.643 426.599,459.037 429.021,459.031   "
         style="clip-rule:evenodd;fill:none;stroke:#000000;stroke-width:0.71950001;stroke-opacity:1" />
      <path
         id="path13648"
         d="m 406.561,452.271 h 0.559 l -0.559,1.396 z m 0,11.806 c 0.248,0.437 0.554,0.812 0.925,1.11 0.724,0.61 1.646,0.912 2.76,0.912 1.185,0 2.184,-0.409 3.021,-1.215 0.827,-0.808 1.241,-1.794 1.241,-2.969 0,-1.046 -0.334,-1.844 -1,-2.385 -0.668,-0.547 -1.379,-0.986 -2.138,-1.329 l -0.39,-0.183 -0.366,-0.162 c -0.693,-0.355 -1.263,-0.688 -1.715,-0.994 -0.446,-0.318 -0.673,-0.772 -0.673,-1.37 0,-0.601 0.227,-1.084 0.686,-1.46 0.455,-0.376 1.009,-0.564 1.659,-0.564 0.425,0 0.782,0.085 1.084,0.249 0.297,0.168 0.582,0.427 0.853,0.792 l 0.143,0.227 c 0.045,0.032 0.099,0.096 0.166,0.202 l 1.203,-0.772 c -0.396,-0.697 -0.886,-1.218 -1.481,-1.584 -0.591,-0.355 -1.227,-0.534 -1.902,-0.534 -1.16,0 -2.103,0.321 -2.831,0.978 -0.738,0.654 -1.104,1.484 -1.104,2.51 0,0.965 0.334,1.706 0.999,2.232 0.663,0.527 1.379,0.952 2.141,1.296 l 0.247,0.121 0.242,0.102 c 0.734,0.365 1.356,0.73 1.875,1.079 0.517,0.357 0.773,0.881 0.773,1.575 0,0.784 -0.26,1.441 -0.782,1.965 -0.526,0.523 -1.188,0.787 -1.989,0.787 -0.706,0 -1.292,-0.217 -1.753,-0.654 -0.467,-0.435 -0.789,-1.059 -0.979,-1.874 l -0.913,0.277 v 1.635 z m -13.371,-1.628 4.259,-10.893 4.021,10.913 3.997,-10.198 h 1.093 v 1.396 l -5.136,12.908 -4.015,-10.898 -4.285,10.884 -5.22,-14.29 h 1.651 z m 13.371,-0.008 -0.56,0.169 c 0.13,0.551 0.318,1.042 0.56,1.467 z"
         inkscape:connector-curvature="0"
         style="fill:#f47b20" />
      <path
         id="path13650"
         d="m 422.406,451.376 c 2.174,0.022 3.996,0.765 5.47,2.216 1.493,1.488 2.238,3.311 2.238,5.474 0,2.146 -0.742,3.967 -2.234,5.456 -1.495,1.496 -3.309,2.239 -5.454,2.239 -0.007,0 -0.014,0 -0.02,0 v -1.426 c 1.124,0 2.165,-0.275 3.121,-0.823 0.968,-0.554 1.721,-1.308 2.263,-2.261 0.54,-0.953 0.813,-2.02 0.813,-3.186 0,-1.163 -0.273,-2.216 -0.813,-3.151 -0.542,-0.941 -1.304,-1.692 -2.284,-2.26 -0.976,-0.558 -2.008,-0.84 -3.1,-0.84 z m -0.099,0 c 0.032,0 0.069,0 0.1,0 v 1.438 c -0.011,0 -0.018,0 -0.03,0 -1.086,0 -2.107,0.274 -3.077,0.84 -0.972,0.567 -1.725,1.329 -2.273,2.285 -0.539,0.958 -0.813,2.023 -0.813,3.189 0,1.747 0.601,3.214 1.806,4.412 1.203,1.2 2.659,1.794 4.357,1.794 0.013,0 0.02,0 0.03,0 v 1.426 c -2.159,-0.005 -3.987,-0.746 -5.477,-2.232 -1.49,-1.482 -2.242,-3.282 -2.242,-5.399 0,-1.4 0.343,-2.71 1.021,-3.906 0.679,-1.204 1.609,-2.141 2.783,-2.825 1.179,-0.682 2.446,-1.022 3.815,-1.022 z"
         inkscape:connector-curvature="0"
         style="fill:#ffffff;fill-opacity:1" />
      <path
         id="path13652"
         d="m 430.629,458.597 c 0.341,-0.1 0.706,-0.15 1.098,-0.15 1.033,0 1.872,0.338 2.513,1.008 0.64,0.668 0.963,1.453 0.963,2.363 0,0.639 -0.152,1.238 -0.459,1.799 -0.308,0.556 -0.904,1.322 -1.787,2.271 l -2.801,3.028 h 5.2 v 1.086 h -7.65 l 4.303,-4.652 c 0.877,-0.934 1.441,-1.623 1.708,-2.082 0.261,-0.445 0.393,-0.924 0.393,-1.426 0,-0.63 -0.239,-1.174 -0.711,-1.632 -0.472,-0.454 -1.051,-0.686 -1.738,-0.686 -0.388,0 -0.746,0.068 -1.064,0.211 0.027,-0.273 0.041,-0.55 0.041,-0.827 -0.002,-0.104 -0.004,-0.209 -0.009,-0.311 z"
         inkscape:connector-curvature="0"
         style="fill:#ffffff;fill-opacity:1" />
    </g>
    <g
       aria-label="MICRO INTEGRATOR  DASHBOARD"
       style="font-style:normal;font-variant:normal;font-weight:normal;font-stretch:normal;font-size:3.88055563px;line-height:1.25;font-family:'Open Sans';-inkscape-font-specification:'Open Sans, Normal';font-variant-ligatures:normal;font-variant-caps:normal;font-variant-numeric:normal;font-feature-settings:normal;text-align:start;letter-spacing:0px;word-spacing:0px;writing-mode:lr-tb;text-anchor:start;fill:#ffffff;fill-opacity:1;stroke:none;stroke-width:0.26458332"
       id="text851">
      <path
         d="m 45.47911,-80.118527 q -0.109297,0.04769 -0.198721,0.08943 -0.08744,0.04173 -0.230518,0.08744 -0.12122,0.03776 -0.264299,0.06359 -0.141093,0.02782 -0.311993,0.02782 -0.32193,0 -0.586229,-0.08943 -0.262313,-0.09141 -0.45706,-0.284172 -0.190773,-0.188785 -0.298083,-0.478919 -0.107309,-0.292121 -0.107309,-0.677641 0,-0.365648 0.103335,-0.653794 0.103335,-0.288147 0.298082,-0.486868 0.188786,-0.19276 0.455073,-0.294108 0.268274,-0.101348 0.594178,-0.101348 0.238466,0 0.474945,0.05763 0.238466,0.05763 0.528599,0.202696 v 0.466996 h -0.02981 q -0.244428,-0.204683 -0.484881,-0.298083 -0.240453,-0.0934 -0.514689,-0.0934 -0.224556,0 -0.405392,0.07353 -0.17885,0.07154 -0.319942,0.224556 -0.137118,0.149041 -0.21462,0.377571 -0.07551,0.226543 -0.07551,0.524625 0,0.311993 0.08346,0.536549 0.08545,0.224555 0.218594,0.365648 0.139105,0.147054 0.323917,0.218593 0.186798,0.06955 0.393468,0.06955 0.284172,0 0.532575,-0.09737 0.248402,-0.09737 0.465008,-0.29212 h 0.02782 z m 2.762231,-2.404532 q 0.180837,0.198721 0.276224,0.486868 0.09737,0.288146 0.09737,0.653794 0,0.365648 -0.09936,0.655781 -0.09737,0.288147 -0.274236,0.480907 -0.182823,0.200709 -0.433213,0.302057 -0.248402,0.101348 -0.568344,0.101348 -0.311993,0 -0.568344,-0.103335 -0.254364,-0.103336 -0.433213,-0.30007 -0.17885,-0.196735 -0.276223,-0.482894 -0.09539,-0.286159 -0.09539,-0.653794 0,-0.361673 0.09539,-0.647833 0.09539,-0.288146 0.27821,-0.492829 0.174875,-0.194748 0.433213,-0.298083 0.260326,-0.103335 0.566357,-0.103335 0.317955,0 0.570331,0.105322 0.254364,0.103336 0.431226,0.296096 z m -0.03577,1.140662 q 0,-0.576293 -0.258339,-0.888286 -0.258338,-0.31398 -0.705462,-0.31398 -0.451098,0 -0.709436,0.31398 -0.256351,0.311993 -0.256351,0.888286 0,0.582254 0.262313,0.89226 0.262312,0.308019 0.703474,0.308019 0.441163,0 0.701488,-0.308019 0.262313,-0.310006 0.262313,-0.89226 z m 3.290831,1.478489 h -0.486868 l -1.402975,-2.646973 v 2.646973 h -0.367635 v -2.958966 H 49.849 l 1.279768,2.416456 v -2.416456 h 0.367635 z m 2.897361,-2.609215 h -1.057199 v 2.609215 h -0.393469 v -2.609215 h -1.057199 v -0.349751 h 2.507867 z m 2.845695,2.609215 H 56.728744 L 55.73911,-81.08034 h -0.554433 v 1.176432 h -0.393469 v -2.958966 h 0.828669 q 0.268275,0 0.447124,0.03577 0.17885,0.03378 0.321929,0.123208 0.160965,0.101348 0.250389,0.256351 0.09141,0.153015 0.09141,0.389494 0,0.319942 -0.160964,0.536549 -0.160965,0.214619 -0.443149,0.323916 z m -0.920081,-2.126322 q 0,-0.127182 -0.04571,-0.224555 -0.04372,-0.09936 -0.147054,-0.166926 -0.08545,-0.05763 -0.202697,-0.07949 -0.117245,-0.02385 -0.276223,-0.02385 h -0.463021 v 1.116816 h 0.397443 q 0.186798,0 0.325904,-0.0318 0.139105,-0.03378 0.236478,-0.123208 0.08942,-0.08346 0.131157,-0.190773 0.04372,-0.109297 0.04372,-0.276223 z m 3.507437,-0.492829 q 0.180837,0.198721 0.276223,0.486868 0.09737,0.288146 0.09737,0.653794 0,0.365648 -0.09936,0.655781 -0.09737,0.288147 -0.274236,0.480907 -0.182824,0.200709 -0.433213,0.302057 -0.248402,0.101348 -0.568344,0.101348 -0.311993,0 -0.568344,-0.103335 -0.254364,-0.103336 -0.433213,-0.30007 -0.17885,-0.196735 -0.276223,-0.482894 -0.09539,-0.286159 -0.09539,-0.653794 0,-0.361673 0.09539,-0.647833 0.09539,-0.288146 0.27821,-0.492829 0.174875,-0.194748 0.433213,-0.298083 0.260326,-0.103335 0.566357,-0.103335 0.317955,0 0.570331,0.105322 0.254364,0.103336 0.431226,0.296096 z m -0.03577,1.140662 q 0,-0.576293 -0.258338,-0.888286 -0.258338,-0.31398 -0.705462,-0.31398 -0.451098,0 -0.709436,0.31398 -0.256351,0.311993 -0.256351,0.888286 0,0.582254 0.262312,0.89226 0.262313,0.308019 0.703475,0.308019 0.441162,0 0.701488,-0.308019 0.262312,-0.310006 0.262312,-0.89226 z m 2.905311,1.478489 h -1.871958 v -2.958966 h 0.393469 v 2.609216 h 1.478489 z m 3.759815,-2.064718 q 0,0.196734 -0.06955,0.365648 -0.06757,0.166926 -0.190772,0.290134 -0.153016,0.153015 -0.361674,0.230517 -0.208658,0.07551 -0.526612,0.07551 h -0.393469 v 1.102905 h -0.393469 v -2.958966 h 0.802835 q 0.266287,0 0.451099,0.04571 0.184811,0.04372 0.32789,0.139106 0.168914,0.113271 0.260326,0.282184 0.0934,0.168914 0.0934,0.427252 z m -0.409367,0.0099 q 0,-0.153016 -0.05365,-0.266287 -0.05365,-0.113271 -0.162951,-0.184811 -0.09539,-0.0616 -0.218594,-0.08744 -0.12122,-0.02782 -0.308019,-0.02782 h -0.389494 v 1.182394 h 0.331865 q 0.238466,0 0.387507,-0.04173 0.149041,-0.04372 0.242441,-0.137118 0.0934,-0.09539 0.131156,-0.200709 0.03974,-0.105323 0.03974,-0.236479 z m 2.799988,2.054782 h -1.871958 v -2.958966 h 0.393469 v 2.609216 h 1.478489 z m 2.726461,0 H 71.15395 l -0.290133,-0.824695 h -1.279768 l -0.290133,0.824695 h -0.399431 l 1.077071,-2.958966 h 0.524626 z m -0.830656,-1.162522 -0.518664,-1.452655 -0.520651,1.452655 z m 3.537246,1.162522 H 73.792975 L 72.39,-82.550881 v 2.646973 h -0.367635 v -2.958966 h 0.610076 l 1.279767,2.416456 v -2.416456 h 0.367635 z m 2.736398,0 h -1.949459 v -2.958966 h 1.949459 v 0.349751 H 75.46025 v 0.810784 h 1.555991 v 0.34975 H 75.46025 v 1.098931 h 1.555991 z m 4.554701,-1.476502 q 0,0.403405 -0.176862,0.731296 -0.174875,0.327891 -0.466996,0.508727 -0.202696,0.125195 -0.453085,0.180837 -0.248403,0.05564 -0.655782,0.05564 h -0.747193 v -2.958966 h 0.739244 q 0.433213,0 0.687577,0.06359 0.256351,0.0616 0.433213,0.170901 0.302057,0.188786 0.470971,0.502766 0.168913,0.31398 0.168913,0.745206 z m -0.411354,-0.006 q 0,-0.347763 -0.12122,-0.586229 -0.12122,-0.238466 -0.361673,-0.375584 -0.174875,-0.09936 -0.37161,-0.137118 -0.196734,-0.03974 -0.47097,-0.03974 h -0.369623 v 2.283312 h 0.369623 q 0.284172,0 0.494817,-0.04173 0.212632,-0.04173 0.389494,-0.155003 0.220581,-0.141092 0.329878,-0.37161 0.111284,-0.230517 0.111284,-0.576292 z m 3.380254,1.482463 h -0.419303 l -0.290133,-0.824695 h -1.279768 l -0.290134,0.824695 h -0.39943 l 1.077071,-2.958966 h 0.524626 z m -0.830656,-1.162522 -0.518664,-1.452655 -0.520651,1.452655 z m 3.410062,0.317955 q 0,0.172888 -0.08148,0.341801 -0.07949,0.168914 -0.224555,0.28616 -0.158978,0.127181 -0.37161,0.198721 -0.210645,0.07154 -0.508727,0.07154 -0.319942,0 -0.576293,-0.05962 -0.254364,-0.05962 -0.518664,-0.176863 v -0.492829 h 0.02782 q 0.224556,0.186798 0.518664,0.288146 0.294108,0.101348 0.552446,0.101348 0.365648,0 0.568344,-0.137118 0.204683,-0.137118 0.204683,-0.365648 0,-0.196734 -0.09737,-0.290133 -0.09539,-0.0934 -0.292121,-0.145067 -0.149041,-0.03974 -0.323916,-0.06558 -0.172888,-0.02583 -0.367635,-0.06558 -0.393469,-0.08346 -0.584242,-0.284172 -0.188786,-0.202696 -0.188786,-0.526612 0,-0.37161 0.31398,-0.608088 0.313981,-0.238466 0.796874,-0.238466 0.311993,0 0.572319,0.05962 0.260325,0.05962 0.461034,0.147054 v 0.465009 h -0.02782 q -0.168913,-0.14308 -0.445137,-0.236479 -0.274235,-0.09539 -0.562382,-0.09539 -0.315967,0 -0.508727,0.131156 -0.190773,0.131156 -0.190773,0.337827 0,0.184811 0.09539,0.290133 0.09539,0.105323 0.33584,0.160965 0.127182,0.02782 0.361673,0.06757 0.234492,0.03974 0.397444,0.08148 0.329878,0.08744 0.496804,0.2643 0.166926,0.176862 0.166926,0.494817 z m 2.895376,0.844567 h -0.393469 v -1.448681 h -1.476502 v 1.448681 h -0.393469 v -2.958966 h 0.393469 v 1.160535 h 1.476502 v -1.160535 h 0.393469 z m 3.026531,-0.910145 q 0,0.220581 -0.08346,0.389494 -0.08346,0.168914 -0.224555,0.278211 -0.166927,0.131156 -0.367636,0.186798 -0.198721,0.05564 -0.50674,0.05564 h -1.04925 v -2.958966 h 0.876362 q 0.323917,0 0.484881,0.02385 0.160965,0.02385 0.308019,0.09936 0.162952,0.08545 0.236479,0.220581 0.07353,0.133143 0.07353,0.319942 0,0.210645 -0.10731,0.359686 -0.10731,0.147054 -0.286159,0.236479 v 0.0159 q 0.300069,0.0616 0.472957,0.264299 0.172888,0.200709 0.172888,0.508728 z m -0.661743,-1.333422 q 0,-0.10731 -0.03577,-0.180837 -0.03577,-0.07353 -0.115258,-0.119233 -0.0934,-0.05365 -0.226543,-0.06558 -0.133144,-0.01391 -0.329878,-0.01391 H 91.20298 v 0.854503 h 0.508727 q 0.184811,0 0.294108,-0.01788 0.109297,-0.01987 0.202696,-0.07949 0.0934,-0.05962 0.131157,-0.153016 0.03974,-0.09539 0.03974,-0.224555 z m 0.252377,1.34932 q 0,-0.17885 -0.05365,-0.284172 -0.05366,-0.105323 -0.194748,-0.17885 -0.09539,-0.04968 -0.232504,-0.06359 -0.135131,-0.0159 -0.329878,-0.0159 H 91.20298 v 1.100918 h 0.52065 q 0.258339,0 0.423278,-0.02583 0.164939,-0.02782 0.270261,-0.09936 0.111284,-0.0775 0.162952,-0.176862 0.05167,-0.09936 0.05167,-0.256351 z m 3.173587,-1.724904 q 0.180836,0.198721 0.276223,0.486868 0.09737,0.288146 0.09737,0.653794 0,0.365648 -0.09936,0.655781 -0.09737,0.288147 -0.274236,0.480907 -0.182824,0.200709 -0.433214,0.302057 -0.248402,0.101348 -0.568344,0.101348 -0.311993,0 -0.568344,-0.103335 -0.254363,-0.103336 -0.433213,-0.30007 -0.178849,-0.196735 -0.276223,-0.482894 -0.09539,-0.286159 -0.09539,-0.653794 0,-0.361673 0.09539,-0.647833 0.09539,-0.288146 0.27821,-0.492829 0.174875,-0.194748 0.433214,-0.298083 0.260325,-0.103335 0.566356,-0.103335 0.317955,0 0.570332,0.105322 0.254363,0.103336 0.431226,0.296096 z m -0.03577,1.140662 q 0,-0.576293 -0.258338,-0.888286 -0.258339,-0.31398 -0.705462,-0.31398 -0.451099,0 -0.709437,0.31398 -0.256351,0.311993 -0.256351,0.888286 0,0.582254 0.262313,0.89226 0.262313,0.308019 0.703475,0.308019 0.441162,0 0.701487,-0.308019 0.262313,-0.310006 0.262313,-0.89226 z m 3.366344,1.478489 h -0.419303 l -0.290134,-0.824695 h -1.279767 l -0.290134,0.824695 h -0.399431 l 1.077072,-2.958966 h 0.524625 z m -0.830657,-1.162522 -0.518664,-1.452655 -0.52065,1.452655 z m 3.728017,1.162522 h -0.51071 l -0.98964,-1.176432 h -0.554429 v 1.176432 h -0.393469 v -2.958966 h 0.828668 q 0.26828,0 0.44712,0.03577 0.17885,0.03378 0.32193,0.123208 0.16097,0.101348 0.25039,0.256351 0.0914,0.153015 0.0914,0.389494 0,0.319942 -0.16097,0.536549 -0.16096,0.214619 -0.44315,0.323916 z m -0.92008,-2.126322 q 0,-0.127182 -0.0457,-0.224555 -0.0437,-0.09936 -0.14706,-0.166926 -0.0854,-0.05763 -0.20269,-0.07949 -0.11725,-0.02385 -0.27623,-0.02385 h -0.463019 v 1.116816 h 0.397439 q 0.1868,0 0.32591,-0.0318 0.1391,-0.03378 0.23648,-0.123208 0.0894,-0.08346 0.13115,-0.190773 0.0437,-0.109297 0.0437,-0.276223 z m 3.80155,0.64982 q 0,0.403405 -0.17687,0.731296 -0.17487,0.327891 -0.46699,0.508727 -0.2027,0.125195 -0.45309,0.180837 -0.2484,0.05564 -0.65578,0.05564 h -0.74719 v -2.958966 h 0.73924 q 0.43322,0 0.68758,0.06359 0.25635,0.0616 0.43321,0.170901 0.30206,0.188786 0.47097,0.502766 0.16892,0.31398 0.16892,0.745206 z m -0.41136,-0.006 q 0,-0.347763 -0.12122,-0.586229 -0.12122,-0.238466 -0.36167,-0.375584 -0.17488,-0.09936 -0.37161,-0.137118 -0.19674,-0.03974 -0.47097,-0.03974 h -0.36962 v 2.283312 h 0.36962 q 0.28417,0 0.49482,-0.04173 0.21263,-0.04173 0.38949,-0.155003 0.22058,-0.141092 0.32988,-0.37161 0.11128,-0.230517 0.11128,-0.576292 z"
         id="text1"
         style="font-size:4.06982px;font-family:Sans;-inkscape-font-specification:'Sans, Normal';stroke-width:0.178292"
         aria-label="CONTROL PLANE DASHBOARD" />
    </g>
  </g>
  <style
     type="text/css"
     id="style4833">&#10;	.st0{display:none;fill:#FFFFFF;stroke:#1D56A0;stroke-width:0.75;}&#10;	.st1{fill:#FFFFFF;stroke:#1D56A0;stroke-width:0.75;stroke-miterlimit:10;}&#10;	.st2{fill:#FFFFFF;stroke:#1D56A0;stroke-width:0.75;}&#10;	.st3{fill:none;stroke:#1D56A0;stroke-width:0.75;}&#10;	.st4{clip-path:url(#SVGID_2_);fill:#FFFFFF;stroke:#1D56A0;stroke-width:0.75;}&#10;	.st5{fill:none;stroke:#1D56A0;stroke-width:0.75;stroke-miterlimit:10;}&#10;	.st6{fill:#FFFFFF;stroke:#E73847;stroke-width:0.75;stroke-miterlimit:10;}&#10;</style>
  <style
     type="text/css"
     id="style4833-0">&#10;	.st0{display:none;fill:#FFFFFF;stroke:#1D56A0;stroke-width:0.75;}&#10;	.st1{fill:#FFFFFF;stroke:#1D56A0;stroke-width:0.75;stroke-miterlimit:10;}&#10;	.st2{fill:#FFFFFF;stroke:#1D56A0;stroke-width:0.75;}&#10;	.st3{fill:none;stroke:#1D56A0;stroke-width:0.75;}&#10;	.st4{clip-path:url(#SVGID_2_);fill:#FFFFFF;stroke:#1D56A0;stroke-width:0.75;}&#10;	.st5{fill:none;stroke:#1D56A0;stroke-width:0.75;stroke-miterlimit:10;}&#10;	.st6{fill:#FFFFFF;stroke:#E73847;stroke-width:0.75;stroke-miterlimit:10;}&#10;</style>
  <style
     id="style4833-9"
     type="text/css">&#10;	.st0{display:none;fill:#FFFFFF;stroke:#1D56A0;stroke-width:0.75;}&#10;	.st1{fill:#FFFFFF;stroke:#1D56A0;stroke-width:0.75;stroke-miterlimit:10;}&#10;	.st2{fill:#FFFFFF;stroke:#1D56A0;stroke-width:0.75;}&#10;	.st3{fill:none;stroke:#1D56A0;stroke-width:0.75;}&#10;	.st4{clip-path:url(#SVGID_2_);fill:#FFFFFF;stroke:#1D56A0;stroke-width:0.75;}&#10;	.st5{fill:none;stroke:#1D56A0;stroke-width:0.75;stroke-miterlimit:10;}&#10;	.st6{fill:#FFFFFF;stroke:#E73847;stroke-width:0.75;stroke-miterlimit:10;}&#10;</style>
  <style
     id="style4833-0-6"
     type="text/css">&#10;	.st0{display:none;fill:#FFFFFF;stroke:#1D56A0;stroke-width:0.75;}&#10;	.st1{fill:#FFFFFF;stroke:#1D56A0;stroke-width:0.75;stroke-miterlimit:10;}&#10;	.st2{fill:#FFFFFF;stroke:#1D56A0;stroke-width:0.75;}&#10;	.st3{fill:none;stroke:#1D56A0;stroke-width:0.75;}&#10;	.st4{clip-path:url(#SVGID_2_);fill:#FFFFFF;stroke:#1D56A0;stroke-width:0.75;}&#10;	.st5{fill:none;stroke:#1D56A0;stroke-width:0.75;stroke-miterlimit:10;}&#10;	.st6{fill:#FFFFFF;stroke:#E73847;stroke-width:0.75;stroke-miterlimit:10;}&#10;</style>
</svg>
